<?xml version="1.0" encoding="utf-8"?>
<!DOCTYPE svg PUBLIC "-//W3C//DTD SVG 1.1//EN" "http://www.w3.org/Graphics/SVG/1.1/DTD/svg11.dtd">
<svg version="1.1" xmlns="http://www.w3.org/2000/svg" x="0px" y="0px" width="144px" height="144px" viewBox="0 0 144 144">
<defs>
</defs>
<rect fill="#E13636" width="144" height="144"/>
<path fill="#FFFFFF" d="M134.596,95.458v-2.41h-11.342
	c0.691-2.49,1.053-6.219,1.053-9.209l7.953-1.349v-2.411l-8.115,1.49c-0.59-6.59-2.953-12.764-6.676-18.21l-2.357-34.23
	l-26.385,14.49c-5.234-1.467-10.836-2.269-16.666-2.269c-5.826,0-11.424,0.807-16.658,2.272L29.014,29.129l-2.355,34.205
	c-3.737,5.458-6.096,11.653-6.686,18.258l-8.233-1.513v2.411l8.077,1.349c0,2.99,0.362,6.719,1.053,9.209H9.404v2.41h12.281
	c1.226,3.151,3.039,5.866,5.335,8.204l-15.281,2.805v2.409l17.483-3.21c9.44,7.701,25.099,10.459,42.837,10.459
	c17.727,0,33.375-2.753,42.816-10.439l17.383,3.19v-2.409l-15.176-2.785c2.307-2.341,4.125-5.063,5.355-8.224H134.596z
	 M51.162,81.751c-8.287,0-15.003-6.301-15.003-9.565c0-3.263,6.716-9.565,15.003-9.565c8.287,0,15.003,6.135,15.003,9.565
	C66.166,75.616,59.449,81.751,51.162,81.751z M71.955,93.859l-8.083-8.793h16.197L71.955,93.859z M91.834,81.751
	c-8.287,0-15.004-6.301-15.004-9.565c0-3.263,6.717-9.565,15.004-9.565s15.004,6.135,15.004,9.565
	C106.838,75.616,100.121,81.751,91.834,81.751z"/>
</svg>
